<?xml version="1.0" encoding="UTF-8" standalone="no"?>
<!-- Generated by graphviz version 2.40.1 (20161225.0304)
 -->

<!-- Title: %3 Pages: 1 -->

<svg
   xmlns:dc="http://purl.org/dc/elements/1.1/"
   xmlns:cc="http://creativecommons.org/ns#"
   xmlns:rdf="http://www.w3.org/1999/02/22-rdf-syntax-ns#"
   xmlns:svg="http://www.w3.org/2000/svg"
   xmlns="http://www.w3.org/2000/svg"
   xmlns:sodipodi="http://sodipodi.sourceforge.net/DTD/sodipodi-0.dtd"
   xmlns:inkscape="http://www.inkscape.org/namespaces/inkscape"
   width="483.31119pt"
   height="872pt"
   viewBox="0 0 483.3112 872"
   version="1.1"
   id="svg212"
   sodipodi:docname="intent-graph.svg"
   inkscape:version="0.92.3 (2405546, 2018-03-11)">
  <metadata
     id="metadata218">
    <rdf:RDF>
      <cc:Work
         rdf:about="">
        <dc:format>image/svg+xml</dc:format>
        <dc:type
           rdf:resource="http://purl.org/dc/dcmitype/StillImage" />
        <dc:title></dc:title>
      </cc:Work>
    </rdf:RDF>
  </metadata>
  <defs
     id="defs216" />
  <sodipodi:namedview
     pagecolor="#ffffff"
     bordercolor="#666666"
     borderopacity="1"
     objecttolerance="10"
     gridtolerance="10"
     guidetolerance="10"
     inkscape:pageopacity="0"
     inkscape:pageshadow="2"
     inkscape:window-width="1440"
     inkscape:window-height="832"
     id="namedview214"
     showgrid="false"
     fit-margin-top="0"
     fit-margin-left="0"
     fit-margin-right="0"
     fit-margin-bottom="0"
     inkscape:zoom="0.8119266"
     inkscape:cx="264.55581"
     inkscape:cy="945.69893"
     inkscape:window-x="0"
     inkscape:window-y="300"
     inkscape:window-maximized="1"
     inkscape:current-layer="svg212" />
  <g
     id="graph0"
     class="graph"
     transform="translate(166.56801,868)">
    <title
       id="title2">%3</title>
    <!-- 0 -->
    <g
       id="node1"
       class="node">
      <title
         id="title6">0</title>
      <ellipse
         cx="64"
         cy="-846"
         rx="27"
         ry="18"
         id="ellipse8"
         style="fill:#afe9af;stroke:#008000;stroke-width:2.25" />
      <text
         x="64"
         y="-842.29999"
         font-size="14.00"
         id="text10"
         style="font-size:10px;font-family:Times, serif;text-anchor:middle;fill:#000000">0</text>
    </g>
    <!-- 1 -->
    <g
       id="node2"
       class="node">
      <title
         id="title13">1</title>
      <ellipse
         cx="64"
         cy="-759"
         rx="27"
         ry="18"
         id="ellipse15"
         style="fill:#e6e6e6;stroke:#000000" />
      <text
         x="64"
         y="-755.29999"
         font-size="14.00"
         id="text17"
         style="font-size:10px;font-family:Times, serif;text-anchor:middle;fill:#000000">1</text>
    </g>
    <!-- 0&#45;&gt;1 -->
    <g
       id="edge1"
       class="edge">
      <title
         id="title20">0-&gt;1</title>
      <path
         d="m 64,-827.9735 c 0,11.7817 0,27.4128 0,40.8154"
         id="path22"
         inkscape:connector-curvature="0"
         style="fill:none;stroke:#000000" />
      <polygon
         points="67.5001,-787.0033 64,-777.0034 60.5001,-787.0034 "
         id="polygon24"
         style="fill:#000000;stroke:#000000" />
      <text
         x="125.5"
         y="-798.79999"
         font-size="14.00"
         id="text26"
         style="font-size:10px;font-family:Times, serif;text-anchor:middle;fill:#0000ff;">:__label__LightState</text>
    </g>
    <!-- 2 -->
    <g
       id="node3"
       class="node">
      <title
         id="title29">2</title>
      <ellipse
         cx="64"
         cy="-672"
         rx="27"
         ry="18"
         id="ellipse31"
         style="fill:#e6e6e6;stroke:#000000" />
      <text
         x="64"
         y="-668.29999"
         font-size="14.00"
         id="text33"
         style="font-size:10px;font-family:Times, serif;text-anchor:middle;fill:#000000">2</text>
    </g>
    <!-- 1&#45;&gt;2 -->
    <g
       id="edge2"
       class="edge">
      <title
         id="title36">1-&gt;2</title>
      <path
         d="m 64,-740.9735 c 0,11.7817 0,27.4128 0,40.8154"
         id="path38"
         inkscape:connector-curvature="0"
         style="fill:none;stroke:#000000" />
      <polygon
         points="67.5001,-700.0033 64,-690.0034 60.5001,-700.0034 "
         id="polygon40"
         style="fill:#000000;stroke:#000000" />
      <text
         x="78"
         y="-711.79999"
         font-size="14.00"
         id="text42"
         style="font-size:10px;font-family:Times, serif;text-anchor:middle;fill:#000000">turn</text>
    </g>
    <!-- 3 -->
    <g
       id="node4"
       class="node">
      <title
         id="title45">3</title>
      <ellipse
         cx="64"
         cy="-585"
         rx="27"
         ry="18"
         id="ellipse47"
         style="fill:#e6e6e6;stroke:#000000" />
      <text
         x="64"
         y="-581.29999"
         font-size="14.00"
         id="text49"
         style="font-size:10px;font-family:Times, serif;text-anchor:middle;fill:#000000">3</text>
    </g>
    <!-- 2&#45;&gt;3 -->
    <g
       id="edge3"
       class="edge">
      <title
         id="title52">2-&gt;3</title>
      <path
         d="m 64,-653.9735 c 0,11.7817 0,27.4128 0,40.8154"
         id="path54"
         inkscape:connector-curvature="0"
         style="fill:none;stroke:#000000" />
      <polygon
         points="67.5001,-613.0033 64,-603.0034 60.5001,-613.0034 "
         id="polygon56"
         style="fill:#000000;stroke:#000000" />
      <text
         x="111.5"
         y="-624.79999"
         font-size="14.00"
         id="text58"
         style="font-size:10px;font-family:Times, serif;text-anchor:middle;fill:#0000ff;">:__begin__state</text>
    </g>
    <!-- 4 -->
    <g
       id="node5"
       class="node">
      <title
         id="title61">4</title>
      <ellipse
         cx="28"
         cy="-498"
         rx="27"
         ry="18"
         id="ellipse63"
         style="fill:#e6e6e6;stroke:#000000" />
      <text
         x="28"
         y="-494.29999"
         font-size="14.00"
         id="text65"
         style="font-size:10px;font-family:Times, serif;text-anchor:middle;fill:#000000">4</text>
    </g>
    <!-- 3&#45;&gt;4 -->
    <g
       id="edge4"
       class="edge">
      <title
         id="title68">3-&gt;4</title>
      <path
         d="m 56.7149,-567.3943 c -5.026,12.1461 -11.8042,28.5269 -17.5131,42.3232"
         id="path70"
         inkscape:connector-curvature="0"
         style="fill:none;stroke:#000000" />
      <polygon
         points="42.3319,-523.4815 35.2743,-515.5796 35.8638,-526.158 "
         id="polygon72"
         style="fill:#000000;stroke:#000000" />
      <text
         x="56"
         y="-537.79999"
         font-size="14.00"
         id="text74"
         style="font-size:10px;font-family:Times, serif;text-anchor:middle;fill:#000000">on</text>
    </g>
    <!-- 5 -->
    <g
       id="node6"
       class="node">
      <title
         id="title77">5</title>
      <ellipse
         cx="100"
         cy="-498"
         rx="27"
         ry="18"
         id="ellipse79"
         style="fill:#e6e6e6;stroke:#000000" />
      <text
         x="100"
         y="-494.29999"
         font-size="14.00"
         id="text81"
         style="font-size:10px;font-family:Times, serif;text-anchor:middle;fill:#000000">5</text>
    </g>
    <!-- 3&#45;&gt;5 -->
    <g
       id="edge5"
       class="edge">
      <title
         id="title84">3-&gt;5</title>
      <path
         d="m 71.2851,-567.3943 c 5.026,12.1461 11.8042,28.5269 17.5131,42.3232"
         id="path86"
         inkscape:connector-curvature="0"
         style="fill:none;stroke:#000000" />
      <polygon
         points="92.1362,-526.158 92.7257,-515.5796 85.6681,-523.4815 "
         id="polygon88"
         style="fill:#000000;stroke:#000000" />
      <text
         x="92"
         y="-537.79999"
         font-size="14.00"
         id="text90"
         style="font-size:10px;font-family:Times, serif;text-anchor:middle;fill:#000000">off</text>
    </g>
    <!-- 6 -->
    <g
       id="node7"
       class="node">
      <title
         id="title93">6</title>
      <ellipse
         cx="63"
         cy="-425"
         rx="27"
         ry="18"
         id="ellipse95"
         style="fill:#e6e6e6;stroke:#000000" />
      <text
         x="63"
         y="-421.29999"
         font-size="14.00"
         id="text97"
         style="font-size:10px;font-family:Times, serif;text-anchor:middle;fill:#000000">6</text>
    </g>
    <!-- 4&#45;&gt;6 -->
    <g
       id="edge6"
       class="edge">
      <title
         id="title100">4-&gt;6</title>
      <path
         d="m 36.2945,-480.7 c 4.1845,8.7276 9.3506,19.5026 14.0206,29.2429"
         id="path102"
         inkscape:connector-curvature="0"
         style="fill:none;stroke:#000000" />
      <polygon
         points="53.5977,-452.7061 54.765,-442.1758 47.2857,-449.6798 "
         id="polygon104"
         style="fill:#000000;stroke:#000000" />
    </g>
    <!-- 5&#45;&gt;6 -->
    <g
       id="edge7"
       class="edge">
      <title
         id="title107">5-&gt;6</title>
      <path
         d="m 91.2315,-480.7 c -4.4696,8.8185 -9.9988,19.7273 -14.9759,29.547"
         id="path109"
         inkscape:connector-curvature="0"
         style="fill:none;stroke:#000000" />
      <polygon
         points="79.3484,-449.5132 71.7055,-442.1758 73.1046,-452.6779 "
         id="polygon111"
         style="fill:#000000;stroke:#000000" />
    </g>
    <!-- 7 -->
    <g
       id="node8"
       class="node">
      <title
         id="title114">7</title>
      <ellipse
         cx="63"
         cy="-338"
         rx="27"
         ry="18"
         id="ellipse116"
         style="fill:#e6e6e6;stroke:#000000" />
      <text
         x="63"
         y="-334.29999"
         font-size="14.00"
         id="text118"
         style="font-size:10px;font-family:Times, serif;text-anchor:middle;fill:#000000">7</text>
    </g>
    <!-- 6&#45;&gt;7 -->
    <g
       id="edge8"
       class="edge">
      <title
         id="title121">6-&gt;7</title>
      <path
         d="m 63,-406.9735 c 0,11.7817 0,27.4128 0,40.8154"
         id="path123"
         inkscape:connector-curvature="0"
         style="fill:none;stroke:#000000" />
      <polygon
         points="66.5001,-366.0033 63,-356.0034 59.5001,-366.0034 "
         id="polygon125"
         style="fill:#000000;stroke:#000000" />
      <text
         x="105.5"
         y="-377.79999"
         font-size="14.00"
         id="text127"
         style="font-size:10px;font-family:Times, serif;text-anchor:middle;fill:#0000ff;">:__end__state</text>
    </g>
    <!-- 8 -->
    <g
       id="node9"
       class="node">
      <title
         id="title130">8</title>
      <ellipse
         cx="27"
         cy="-251"
         rx="27"
         ry="18"
         id="ellipse132"
         style="fill:#e6e6e6;stroke:#000000" />
      <text
         x="27"
         y="-247.3"
         font-size="14.00"
         id="text134"
         style="font-size:10px;font-family:Times, serif;text-anchor:middle;fill:#000000">8</text>
    </g>
    <!-- 7&#45;&gt;8 -->
    <g
       id="edge9"
       class="edge">
      <title
         id="title137">7-&gt;8</title>
      <path
         d="m 55.7149,-320.3943 c -5.026,12.1461 -11.8042,28.5269 -17.5131,42.3232"
         id="path139"
         inkscape:connector-curvature="0"
         style="fill:none;stroke:#000000" />
      <polygon
         points="41.3319,-276.4815 34.2743,-268.5796 34.8638,-279.158 "
         id="polygon141"
         style="fill:#000000;stroke:#000000" />
      <text
         x="56.5"
         y="-290.79999"
         font-size="14.00"
         id="text143"
         style="font-size:10px;font-family:Times, serif;text-anchor:middle;fill:#000000">the</text>
    </g>
    <!-- 9 -->
    <g
       id="node10"
       class="node">
      <title
         id="title146">9</title>
      <ellipse
         cx="99"
         cy="-251"
         rx="27"
         ry="18"
         id="ellipse148"
         style="fill:#e6e6e6;stroke:#000000" />
      <text
         x="99"
         y="-247.3"
         font-size="14.00"
         id="text150"
         style="font-size:10px;font-family:Times, serif;text-anchor:middle;fill:#000000">9</text>
    </g>
    <!-- 7&#45;&gt;9 -->
    <g
       id="edge10"
       class="edge">
      <title
         id="title153">7-&gt;9</title>
      <path
         d="m 70.2851,-320.3943 c 5.026,12.1461 11.8042,28.5269 17.5131,42.3232"
         id="path155"
         inkscape:connector-curvature="0"
         style="fill:none;stroke:#000000" />
      <polygon
         points="91.1362,-279.158 91.7257,-268.5796 84.6681,-276.4815 "
         id="polygon157"
         style="fill:#000000;stroke:#000000" />
    </g>
    <!-- 10 -->
    <g
       id="node11"
       class="node">
      <title
         id="title160">10</title>
      <ellipse
         cx="62"
         cy="-178"
         rx="27"
         ry="18"
         id="ellipse162"
         style="fill:#e6e6e6;stroke:#000000" />
      <text
         x="62"
         y="-174.3"
         font-size="14.00"
         id="text164"
         style="font-size:10px;font-family:Times, serif;text-anchor:middle;fill:#000000">10</text>
    </g>
    <!-- 8&#45;&gt;10 -->
    <g
       id="edge11"
       class="edge">
      <title
         id="title167">8-&gt;10</title>
      <path
         d="m 35.2945,-233.7 c 4.1845,8.7276 9.3506,19.5026 14.0206,29.2429"
         id="path169"
         inkscape:connector-curvature="0"
         style="fill:none;stroke:#000000" />
      <polygon
         points="52.5977,-205.7061 53.765,-195.1758 46.2857,-202.6798 "
         id="polygon171"
         style="fill:#000000;stroke:#000000" />
    </g>
    <!-- 9&#45;&gt;10 -->
    <g
       id="edge12"
       class="edge">
      <title
         id="title174">9-&gt;10</title>
      <path
         d="m 90.2315,-233.7 c -4.4696,8.8185 -9.9988,19.7273 -14.9759,29.547"
         id="path176"
         inkscape:connector-curvature="0"
         style="fill:none;stroke:#000000" />
      <polygon
         points="78.3484,-202.5132 70.7055,-195.1758 72.1046,-205.6779 "
         id="polygon178"
         style="fill:#000000;stroke:#000000" />
    </g>
    <!-- 11 -->
    <g
       id="node12"
       class="node">
      <title
         id="title181">11</title>
      <ellipse
         cx="62"
         cy="-91"
         rx="27"
         ry="18"
         id="ellipse183"
         style="fill:#e6e6e6;stroke:#000000" />
      <text
         x="62"
         y="-87.300003"
         font-size="14.00"
         id="text185"
         style="font-size:10px;font-family:Times, serif;text-anchor:middle;fill:#000000">11</text>
    </g>
    <!-- 10&#45;&gt;11 -->
    <g
       id="edge13"
       class="edge">
      <title
         id="title188">10-&gt;11</title>
      <path
         d="m 62,-159.9735 c 0,11.7817 0,27.4128 0,40.8154"
         id="path190"
         inkscape:connector-curvature="0"
         style="fill:none;stroke:#000000" />
      <polygon
         points="65.5001,-119.0033 62,-109.0034 58.5001,-119.0034 "
         id="polygon192"
         style="fill:#000000;stroke:#000000" />
      <text
         x="79"
         y="-130.8"
         font-size="14.00"
         id="text194"
         style="font-size:10px;font-family:Times, serif;text-anchor:middle;fill:#000000">light</text>
    </g>
    <!-- 12 -->
    <g
       id="node13"
       class="node">
      <title
         id="title197">12</title>
      <ellipse
         cx="62"
         cy="-18"
         rx="27"
         ry="18"
         id="ellipse199"
         style="fill:#ffaaaa;stroke:#ff0000;stroke-width:2.25" />
      <text
         x="62"
         y="-14.3"
         font-size="14.00"
         id="text201"
         style="font-size:10px;font-family:Times, serif;text-anchor:middle;fill:#000000">12</text>
    </g>
    <!-- 11&#45;&gt;12 -->
    <g
       id="edge14"
       class="edge">
      <title
         id="title204">11-&gt;12</title>
      <path
         d="m 62,-72.9551 c 0,8.0723 0,17.7787 0,26.7734"
         id="path206"
         inkscape:connector-curvature="0"
         style="fill:none;stroke:#000000" />
      <polygon
         points="65.5001,-46.0903 62,-36.0904 58.5001,-46.0904 "
         id="polygon208"
         style="fill:#000000;stroke:#000000" />
    </g>
  </g>
  <g
     id="g965"
     transform="translate(162.56801)">
    <path
       sodipodi:nodetypes="ccccscscccscsccccccsccssccc"
       inkscape:connector-curvature="0"
       id="path195"
       style="font-style:normal;font-weight:normal;font-size:72.17579651px;line-height:1.25;font-family:sans-serif;letter-spacing:0px;word-spacing:0px;fill:#4d4d4d;fill-opacity:1;stroke:none;stroke-width:0.44558176"
       d="m 168.47199,121.68976 v 3.56229 h 3.81322 c 14.70756,-0.0346 17.38514,-8.05209 17.46797,-15.99874 V 83.890973 c 0,-4.3646 1.10707,-7.38515 3.32121,-9.06161 2.21409,-1.67647 6.23418,-4.66511 12.05464,-4.51819 h 3.75172 l 5.07101,-1.09655 -5.07101,-0.90714 h -3.75172 c -5.86332,0 -9.88154,-3.01667 -12.05464,-4.66424 -2.21414,-1.67647 -3.32121,-4.66811 -3.32121,-8.97491 V 29.262636 c 0.18964,-11.162188 -8.74639,-15.918999 -17.46797,-15.955379 h -3.81322 v 2.625208 h 7.35163 c 8.20675,1.011572 10.75875,9.543938 10.79189,13.5036 v 25.752548 c 0,4.53804 0.94303,7.83318 2.82912,9.88541 1.8451,2.05223 5.02279,3.43966 9.53305,4.16228 -4.55125,0.78042 -7.74944,2.19674 -9.59454,4.24898 -1.8451,2.05224 -2.76763,5.33292 -2.76763,9.84206 v 25.752527 c 0.0575,5.65975 -4.84036,12.49551 -10.15804,12.60989 z" />
    <text
       xml:space="preserve"
       style="font-style:normal;font-weight:normal;font-size:14.33721828px;line-height:1.25;font-family:sans-serif;letter-spacing:0px;word-spacing:0px;fill:#000000;fill-opacity:1;stroke:none;stroke-width:0.75"
       x="220.84471"
       y="74.404091"
       id="text1472-5"><tspan
         sodipodi:role="line"
         id="tspan1470-3"
         x="220.84471"
         y="74.404091"
         style="font-weight:bold;stroke-width:0.75">Intent Name</tspan></text>
  </g>
  <g
     id="g970"
     transform="translate(162.56801)">
    <path
       d="m 168.47199,414.5118 v 3.56229 h 3.81322 c 14.70756,-0.0346 17.38514,-8.05209 17.46797,-15.99874 v -25.36234 c 0,-4.3646 1.10707,-7.38515 3.32121,-9.06161 2.21409,-1.67647 6.23418,-4.66511 12.05464,-4.51819 h 3.75172 l 5.07101,-1.09655 -5.07101,-0.90714 h -3.75172 c -5.86332,0 -9.88154,-3.01667 -12.05464,-4.66424 -2.21414,-1.67647 -3.32121,-4.66811 -3.32121,-8.97491 v -25.40569 c 0.18964,-11.16219 -8.74639,-15.919 -17.46797,-15.95538 h -3.81322 v 2.62521 h 7.35163 c 8.20675,1.01157 10.75875,9.54393 10.79189,13.5036 v 25.75254 c 0,4.53804 0.94303,7.83318 2.82912,9.88541 1.8451,2.05223 5.02279,3.43966 9.53305,4.16228 -4.55125,0.78042 -7.74944,2.19674 -9.59454,4.24898 -1.8451,2.05224 -2.76763,5.33292 -2.76763,9.84206 v 25.75253 c 0.0575,5.65975 -4.84036,12.49551 -10.15804,12.60989 z"
       style="font-style:normal;font-weight:normal;font-size:72.17579651px;line-height:1.25;font-family:sans-serif;letter-spacing:0px;word-spacing:0px;fill:#4d4d4d;fill-opacity:1;stroke:none;stroke-width:0.44558176"
       id="path944"
       inkscape:connector-curvature="0"
       sodipodi:nodetypes="ccccscscccscsccccccsccssccc" />
    <text
       id="text948"
       y="367.44666"
       x="222.13982"
       style="font-style:normal;font-weight:normal;font-size:14.33721828px;line-height:1.25;font-family:sans-serif;letter-spacing:0px;word-spacing:0px;fill:#000000;fill-opacity:1;stroke:none;stroke-width:0.75"
       xml:space="preserve"><tspan
         style="font-weight:bold;stroke-width:0.75"
         y="367.44666"
         x="222.13982"
         id="tspan946"
         sodipodi:role="line">Alternative</tspan></text>
  </g>
  <g
     id="g975"
     transform="translate(162.56801)">
    <path
       sodipodi:nodetypes="ccccscscccscsccccccsccssccc"
       inkscape:connector-curvature="0"
       id="path950"
       style="font-style:normal;font-weight:normal;font-size:72.17579651px;line-height:1.25;font-family:sans-serif;letter-spacing:0px;word-spacing:0px;fill:#4d4d4d;fill-opacity:1;stroke:none;stroke-width:0.44558176"
       d="m 168.47199,618.65588 v 3.56229 h 3.81322 c 14.70756,-0.0346 17.38514,-8.05209 17.46797,-15.99874 v -25.36234 c 0,-4.3646 1.10707,-7.38515 3.32121,-9.06161 2.21409,-1.67647 6.23418,-4.66511 12.05464,-4.51819 h 3.75172 l 5.07101,-1.09655 -5.07101,-0.90714 h -3.75172 c -5.86332,0 -9.88154,-3.01667 -12.05464,-4.66424 -2.21414,-1.67647 -3.32121,-4.66811 -3.32121,-8.97491 v -25.40569 c 0.18964,-11.16219 -8.74639,-15.919 -17.46797,-15.95538 h -3.81322 v 2.62521 h 7.35163 c 8.20675,1.01157 10.75875,9.54393 10.79189,13.5036 v 25.75254 c 0,4.53804 0.94303,7.83318 2.82912,9.88541 1.8451,2.05223 5.02279,3.43966 9.53305,4.16228 -4.55125,0.78042 -7.74944,2.19674 -9.59454,4.24898 -1.8451,2.05224 -2.76763,5.33292 -2.76763,9.84206 v 25.75253 c 0.0575,5.65975 -4.84036,12.49551 -10.15804,12.60989 z" />
    <text
       xml:space="preserve"
       style="font-style:normal;font-weight:normal;font-size:14.33721828px;line-height:1.25;font-family:sans-serif;letter-spacing:0px;word-spacing:0px;fill:#000000;fill-opacity:1;stroke:none;stroke-width:0.75"
       x="221.44676"
       y="570.20111"
       id="text954"><tspan
         sodipodi:role="line"
         id="tspan952"
         x="221.44676"
         y="570.20111"
         style="font-weight:bold;stroke-width:0.75">Optional</tspan></text>
  </g>
  <g
     id="g980"
     transform="translate(162.56801)">
    <path
       d="m -4.0482468,524.13046 v 3.56229 h -3.81322 c -14.7075612,-0.0346 -17.3851412,-8.05209 -17.4679712,-15.99874 v -25.36234 c 0,-4.3646 -1.10707,-112.38515 -3.32121,-114.06161 -2.21409,-1.67647 -6.23418,-4.66511 -12.05464,-4.51819 h -3.75172 l -5.07101,-1.09655 5.07101,-0.90714 h 3.75172 c 5.86332,0 9.88154,-3.01667 12.05464,-4.66424 2.21414,-1.67647 3.32121,-109.66811 3.32121,-113.97491 v -25.4057 c -0.18964,-11.16219 8.74639,-15.919 17.4679712,-15.95538 h 3.81322 v 2.62521 h -7.3516302 c -8.206751,1.01157 -10.758751,9.54394 -10.791891,13.5036 v 25.75255 c 0,4.53804 -0.94303,112.83318 -2.82912,114.88541 -1.8451,2.05223 -5.02279,3.43966 -9.53305,4.16228 4.55125,0.78042 7.74944,2.19674 9.59454,4.24898 1.8451,2.05224 2.76763,110.33292 2.76763,114.84206 v 25.75253 c -0.0575,5.65975 4.84036,12.49551 10.158041,12.60989 z"
       style="font-style:normal;font-weight:normal;font-size:72.17579651px;line-height:1.25;font-family:sans-serif;letter-spacing:0px;word-spacing:0px;fill:#4d4d4d;fill-opacity:1;stroke:none;stroke-width:0.44558176"
       id="path956"
       inkscape:connector-curvature="0"
       sodipodi:nodetypes="ccccscscccscsccccccsccssccc" />
    <text
       id="text960"
       y="370.67569"
       x="-163.88412"
       style="font-style:normal;font-weight:normal;font-size:14.33721828px;line-height:1.25;font-family:sans-serif;letter-spacing:0px;word-spacing:0px;fill:#000000;fill-opacity:1;stroke:none;stroke-width:0.75"
       xml:space="preserve"><tspan
         style="font-weight:bold;stroke-width:0.75"
         y="370.67569"
         x="-163.88412"
         id="tspan958"
         sodipodi:role="line">Named Entity</tspan></text>
  </g>
</svg>
